<mxfile host="app.diagrams.net" agent="Mozilla/5.0 (Windows NT 10.0; Win64; x64) AppleWebKit/537.36 (KHTML, like Gecko) Chrome/133.0.0.0 Safari/537.36" version="26.0.16">
  <diagram name="Page-1" id="Im4-nUQPbpK0qBma-LjV">
    <mxGraphModel dx="1195" dy="655" grid="1" gridSize="10" guides="1" tooltips="1" connect="1" arrows="1" fold="1" page="1" pageScale="1" pageWidth="850" pageHeight="1100" math="0" shadow="0">
      <root>
        <mxCell id="0" />
        <mxCell id="1" parent="0" />
        <mxCell id="i-ALyavoHfY1uzqZBJJP-1" value="Carta" style="swimlane;fontStyle=1;align=center;verticalAlign=top;childLayout=stackLayout;horizontal=1;startSize=26;horizontalStack=0;resizeParent=1;resizeParentMax=0;resizeLast=0;collapsible=1;marginBottom=0;whiteSpace=wrap;html=1;" vertex="1" parent="1">
          <mxGeometry x="200" y="90" width="160" height="96" as="geometry" />
        </mxCell>
        <mxCell id="i-ALyavoHfY1uzqZBJJP-2" value="- valor: int&lt;div&gt;- nombre: String&lt;/div&gt;" style="text;strokeColor=none;fillColor=none;align=left;verticalAlign=top;spacingLeft=4;spacingRight=4;overflow=hidden;rotatable=0;points=[[0,0.5],[1,0.5]];portConstraint=eastwest;whiteSpace=wrap;html=1;" vertex="1" parent="i-ALyavoHfY1uzqZBJJP-1">
          <mxGeometry y="26" width="160" height="34" as="geometry" />
        </mxCell>
        <mxCell id="i-ALyavoHfY1uzqZBJJP-3" value="" style="line;strokeWidth=1;fillColor=none;align=left;verticalAlign=middle;spacingTop=-1;spacingLeft=3;spacingRight=3;rotatable=0;labelPosition=right;points=[];portConstraint=eastwest;strokeColor=inherit;" vertex="1" parent="i-ALyavoHfY1uzqZBJJP-1">
          <mxGeometry y="60" width="160" height="10" as="geometry" />
        </mxCell>
        <mxCell id="i-ALyavoHfY1uzqZBJJP-4" value="+ observarCarta(): String" style="text;strokeColor=none;fillColor=none;align=left;verticalAlign=top;spacingLeft=4;spacingRight=4;overflow=hidden;rotatable=0;points=[[0,0.5],[1,0.5]];portConstraint=eastwest;whiteSpace=wrap;html=1;" vertex="1" parent="i-ALyavoHfY1uzqZBJJP-1">
          <mxGeometry y="70" width="160" height="26" as="geometry" />
        </mxCell>
        <mxCell id="i-ALyavoHfY1uzqZBJJP-5" value="Baraja" style="swimlane;fontStyle=1;align=center;verticalAlign=top;childLayout=stackLayout;horizontal=1;startSize=26;horizontalStack=0;resizeParent=1;resizeParentMax=0;resizeLast=0;collapsible=1;marginBottom=0;whiteSpace=wrap;html=1;" vertex="1" parent="1">
          <mxGeometry x="500" y="120" width="160" height="100" as="geometry" />
        </mxCell>
        <mxCell id="i-ALyavoHfY1uzqZBJJP-6" value="- cartas: String&amp;nbsp;" style="text;strokeColor=none;fillColor=none;align=left;verticalAlign=top;spacingLeft=4;spacingRight=4;overflow=hidden;rotatable=0;points=[[0,0.5],[1,0.5]];portConstraint=eastwest;whiteSpace=wrap;html=1;" vertex="1" parent="i-ALyavoHfY1uzqZBJJP-5">
          <mxGeometry y="26" width="160" height="26" as="geometry" />
        </mxCell>
        <mxCell id="i-ALyavoHfY1uzqZBJJP-7" value="" style="line;strokeWidth=1;fillColor=none;align=left;verticalAlign=middle;spacingTop=-1;spacingLeft=3;spacingRight=3;rotatable=0;labelPosition=right;points=[];portConstraint=eastwest;strokeColor=inherit;" vertex="1" parent="i-ALyavoHfY1uzqZBJJP-5">
          <mxGeometry y="52" width="160" height="8" as="geometry" />
        </mxCell>
        <mxCell id="i-ALyavoHfY1uzqZBJJP-8" value="+ barajar(): carta&amp;nbsp;&lt;div&gt;+repartir(): carta&lt;/div&gt;" style="text;strokeColor=none;fillColor=none;align=left;verticalAlign=top;spacingLeft=4;spacingRight=4;overflow=hidden;rotatable=0;points=[[0,0.5],[1,0.5]];portConstraint=eastwest;whiteSpace=wrap;html=1;" vertex="1" parent="i-ALyavoHfY1uzqZBJJP-5">
          <mxGeometry y="60" width="160" height="40" as="geometry" />
        </mxCell>
        <mxCell id="i-ALyavoHfY1uzqZBJJP-11" style="edgeStyle=orthogonalEdgeStyle;rounded=0;orthogonalLoop=1;jettySize=auto;html=1;exitX=1;exitY=0.5;exitDx=0;exitDy=0;entryX=-0.01;entryY=0.763;entryDx=0;entryDy=0;entryPerimeter=0;endArrow=none;startFill=0;targetPerimeterSpacing=0;fontStyle=1;align=left;" edge="1" parent="1" source="i-ALyavoHfY1uzqZBJJP-2" target="i-ALyavoHfY1uzqZBJJP-6">
          <mxGeometry relative="1" as="geometry">
            <mxPoint x="400" y="150" as="targetPoint" />
            <Array as="points">
              <mxPoint x="415" y="133" />
              <mxPoint x="415" y="170" />
              <mxPoint x="468" y="170" />
            </Array>
          </mxGeometry>
        </mxCell>
        <mxCell id="i-ALyavoHfY1uzqZBJJP-15" value="1" style="edgeLabel;html=1;align=center;verticalAlign=middle;resizable=0;points=[];" vertex="1" connectable="0" parent="i-ALyavoHfY1uzqZBJJP-11">
          <mxGeometry x="-0.7623" y="2" relative="1" as="geometry">
            <mxPoint as="offset" />
          </mxGeometry>
        </mxCell>
        <mxCell id="i-ALyavoHfY1uzqZBJJP-16" value="1..*" style="edgeLabel;html=1;align=center;verticalAlign=middle;resizable=0;points=[];" vertex="1" connectable="0" parent="i-ALyavoHfY1uzqZBJJP-11">
          <mxGeometry x="0.6268" y="1" relative="1" as="geometry">
            <mxPoint as="offset" />
          </mxGeometry>
        </mxCell>
        <mxCell id="i-ALyavoHfY1uzqZBJJP-17" value="Poker" style="swimlane;fontStyle=1;align=center;verticalAlign=top;childLayout=stackLayout;horizontal=1;startSize=26;horizontalStack=0;resizeParent=1;resizeParentMax=0;resizeLast=0;collapsible=1;marginBottom=0;whiteSpace=wrap;html=1;" vertex="1" parent="1">
          <mxGeometry x="290" y="350" width="190" height="86" as="geometry" />
        </mxCell>
        <mxCell id="i-ALyavoHfY1uzqZBJJP-18" value="- barajaPoker: String" style="text;strokeColor=none;fillColor=none;align=left;verticalAlign=top;spacingLeft=4;spacingRight=4;overflow=hidden;rotatable=0;points=[[0,0.5],[1,0.5]];portConstraint=eastwest;whiteSpace=wrap;html=1;" vertex="1" parent="i-ALyavoHfY1uzqZBJJP-17">
          <mxGeometry y="26" width="190" height="26" as="geometry" />
        </mxCell>
        <mxCell id="i-ALyavoHfY1uzqZBJJP-19" value="" style="line;strokeWidth=1;fillColor=none;align=left;verticalAlign=middle;spacingTop=-1;spacingLeft=3;spacingRight=3;rotatable=0;labelPosition=right;points=[];portConstraint=eastwest;strokeColor=inherit;" vertex="1" parent="i-ALyavoHfY1uzqZBJJP-17">
          <mxGeometry y="52" width="190" height="8" as="geometry" />
        </mxCell>
        <mxCell id="i-ALyavoHfY1uzqZBJJP-20" value="+ validarMano(JuegoDeCartas):" style="text;strokeColor=none;fillColor=none;align=left;verticalAlign=top;spacingLeft=4;spacingRight=4;overflow=hidden;rotatable=0;points=[[0,0.5],[1,0.5]];portConstraint=eastwest;whiteSpace=wrap;html=1;" vertex="1" parent="i-ALyavoHfY1uzqZBJJP-17">
          <mxGeometry y="60" width="190" height="26" as="geometry" />
        </mxCell>
        <mxCell id="i-ALyavoHfY1uzqZBJJP-21" value="JuegoDeCartas" style="swimlane;fontStyle=1;align=center;verticalAlign=top;childLayout=stackLayout;horizontal=1;startSize=26;horizontalStack=0;resizeParent=1;resizeParentMax=0;resizeLast=0;collapsible=1;marginBottom=0;whiteSpace=wrap;html=1;" vertex="1" parent="1">
          <mxGeometry x="540" y="290" width="160" height="130" as="geometry" />
        </mxCell>
        <mxCell id="i-ALyavoHfY1uzqZBJJP-22" value="- baraja: Baraja" style="text;strokeColor=none;fillColor=none;align=left;verticalAlign=top;spacingLeft=4;spacingRight=4;overflow=hidden;rotatable=0;points=[[0,0.5],[1,0.5]];portConstraint=eastwest;whiteSpace=wrap;html=1;" vertex="1" parent="i-ALyavoHfY1uzqZBJJP-21">
          <mxGeometry y="26" width="160" height="26" as="geometry" />
        </mxCell>
        <mxCell id="i-ALyavoHfY1uzqZBJJP-23" value="" style="line;strokeWidth=1;fillColor=none;align=left;verticalAlign=middle;spacingTop=-1;spacingLeft=3;spacingRight=3;rotatable=0;labelPosition=right;points=[];portConstraint=eastwest;strokeColor=inherit;" vertex="1" parent="i-ALyavoHfY1uzqZBJJP-21">
          <mxGeometry y="52" width="160" height="8" as="geometry" />
        </mxCell>
        <mxCell id="i-ALyavoHfY1uzqZBJJP-24" value="+ iniciarJuego(): void&lt;div&gt;+ repartirCartas(): void&lt;/div&gt;&lt;div&gt;&amp;nbsp;+ mostrarEstado(): void&lt;/div&gt;" style="text;strokeColor=none;fillColor=none;align=left;verticalAlign=top;spacingLeft=4;spacingRight=4;overflow=hidden;rotatable=0;points=[[0,0.5],[1,0.5]];portConstraint=eastwest;whiteSpace=wrap;html=1;" vertex="1" parent="i-ALyavoHfY1uzqZBJJP-21">
          <mxGeometry y="60" width="160" height="70" as="geometry" />
        </mxCell>
        <mxCell id="i-ALyavoHfY1uzqZBJJP-26" style="edgeStyle=orthogonalEdgeStyle;rounded=0;orthogonalLoop=1;jettySize=auto;html=1;entryX=0.75;entryY=0;entryDx=0;entryDy=0;endArrow=block;endFill=0;" edge="1" parent="1" source="i-ALyavoHfY1uzqZBJJP-8" target="i-ALyavoHfY1uzqZBJJP-21">
          <mxGeometry relative="1" as="geometry" />
        </mxCell>
        <mxCell id="i-ALyavoHfY1uzqZBJJP-41" value="1" style="edgeLabel;html=1;align=center;verticalAlign=middle;resizable=0;points=[];" vertex="1" connectable="0" parent="i-ALyavoHfY1uzqZBJJP-26">
          <mxGeometry x="-0.8077" y="2" relative="1" as="geometry">
            <mxPoint as="offset" />
          </mxGeometry>
        </mxCell>
        <mxCell id="i-ALyavoHfY1uzqZBJJP-42" value="1" style="edgeLabel;html=1;align=center;verticalAlign=middle;resizable=0;points=[];" vertex="1" connectable="0" parent="i-ALyavoHfY1uzqZBJJP-26">
          <mxGeometry x="0.6538" y="-2" relative="1" as="geometry">
            <mxPoint as="offset" />
          </mxGeometry>
        </mxCell>
        <mxCell id="i-ALyavoHfY1uzqZBJJP-27" style="edgeStyle=orthogonalEdgeStyle;rounded=0;orthogonalLoop=1;jettySize=auto;html=1;entryX=-0.005;entryY=0.06;entryDx=0;entryDy=0;entryPerimeter=0;" edge="1" parent="1" source="i-ALyavoHfY1uzqZBJJP-17" target="i-ALyavoHfY1uzqZBJJP-24">
          <mxGeometry relative="1" as="geometry" />
        </mxCell>
        <mxCell id="i-ALyavoHfY1uzqZBJJP-39" value="1" style="edgeLabel;html=1;align=center;verticalAlign=middle;resizable=0;points=[];" vertex="1" connectable="0" parent="i-ALyavoHfY1uzqZBJJP-27">
          <mxGeometry x="-0.813" relative="1" as="geometry">
            <mxPoint as="offset" />
          </mxGeometry>
        </mxCell>
        <mxCell id="i-ALyavoHfY1uzqZBJJP-40" value="1" style="edgeLabel;html=1;align=center;verticalAlign=middle;resizable=0;points=[];" vertex="1" connectable="0" parent="i-ALyavoHfY1uzqZBJJP-27">
          <mxGeometry x="0.7103" y="-1" relative="1" as="geometry">
            <mxPoint as="offset" />
          </mxGeometry>
        </mxCell>
        <mxCell id="i-ALyavoHfY1uzqZBJJP-29" value="Blackjack" style="swimlane;fontStyle=1;align=center;verticalAlign=top;childLayout=stackLayout;horizontal=1;startSize=26;horizontalStack=0;resizeParent=1;resizeParentMax=0;resizeLast=0;collapsible=1;marginBottom=0;whiteSpace=wrap;html=1;" vertex="1" parent="1">
          <mxGeometry x="350" y="480" width="240" height="110" as="geometry" />
        </mxCell>
        <mxCell id="i-ALyavoHfY1uzqZBJJP-30" value="- barajaBlackjack: int" style="text;strokeColor=none;fillColor=none;align=left;verticalAlign=top;spacingLeft=4;spacingRight=4;overflow=hidden;rotatable=0;points=[[0,0.5],[1,0.5]];portConstraint=eastwest;whiteSpace=wrap;html=1;" vertex="1" parent="i-ALyavoHfY1uzqZBJJP-29">
          <mxGeometry y="26" width="240" height="26" as="geometry" />
        </mxCell>
        <mxCell id="i-ALyavoHfY1uzqZBJJP-31" value="" style="line;strokeWidth=1;fillColor=none;align=left;verticalAlign=middle;spacingTop=-1;spacingLeft=3;spacingRight=3;rotatable=0;labelPosition=right;points=[];portConstraint=eastwest;strokeColor=inherit;" vertex="1" parent="i-ALyavoHfY1uzqZBJJP-29">
          <mxGeometry y="52" width="240" height="8" as="geometry" />
        </mxCell>
        <mxCell id="i-ALyavoHfY1uzqZBJJP-32" value="+ calcularPuntaje():int&lt;div&gt;+ verificarBlackjack(JuegoDeCartas):void&lt;/div&gt;" style="text;strokeColor=none;fillColor=none;align=left;verticalAlign=top;spacingLeft=4;spacingRight=4;overflow=hidden;rotatable=0;points=[[0,0.5],[1,0.5]];portConstraint=eastwest;whiteSpace=wrap;html=1;" vertex="1" parent="i-ALyavoHfY1uzqZBJJP-29">
          <mxGeometry y="60" width="240" height="50" as="geometry" />
        </mxCell>
        <mxCell id="i-ALyavoHfY1uzqZBJJP-33" value="Uno" style="swimlane;fontStyle=1;align=center;verticalAlign=top;childLayout=stackLayout;horizontal=1;startSize=26;horizontalStack=0;resizeParent=1;resizeParentMax=0;resizeLast=0;collapsible=1;marginBottom=0;whiteSpace=wrap;html=1;" vertex="1" parent="1">
          <mxGeometry x="630" y="490" width="160" height="110" as="geometry" />
        </mxCell>
        <mxCell id="i-ALyavoHfY1uzqZBJJP-34" value="- barajaUno: String" style="text;strokeColor=none;fillColor=none;align=left;verticalAlign=top;spacingLeft=4;spacingRight=4;overflow=hidden;rotatable=0;points=[[0,0.5],[1,0.5]];portConstraint=eastwest;whiteSpace=wrap;html=1;" vertex="1" parent="i-ALyavoHfY1uzqZBJJP-33">
          <mxGeometry y="26" width="160" height="26" as="geometry" />
        </mxCell>
        <mxCell id="i-ALyavoHfY1uzqZBJJP-35" value="" style="line;strokeWidth=1;fillColor=none;align=left;verticalAlign=middle;spacingTop=-1;spacingLeft=3;spacingRight=3;rotatable=0;labelPosition=right;points=[];portConstraint=eastwest;strokeColor=inherit;" vertex="1" parent="i-ALyavoHfY1uzqZBJJP-33">
          <mxGeometry y="52" width="160" height="8" as="geometry" />
        </mxCell>
        <mxCell id="i-ALyavoHfY1uzqZBJJP-36" value="+ aplicarReglas():void&lt;div&gt;+ cambiarTurno():void&lt;/div&gt;" style="text;strokeColor=none;fillColor=none;align=left;verticalAlign=top;spacingLeft=4;spacingRight=4;overflow=hidden;rotatable=0;points=[[0,0.5],[1,0.5]];portConstraint=eastwest;whiteSpace=wrap;html=1;" vertex="1" parent="i-ALyavoHfY1uzqZBJJP-33">
          <mxGeometry y="60" width="160" height="50" as="geometry" />
        </mxCell>
        <mxCell id="i-ALyavoHfY1uzqZBJJP-37" style="edgeStyle=orthogonalEdgeStyle;rounded=0;orthogonalLoop=1;jettySize=auto;html=1;exitX=0.75;exitY=0;exitDx=0;exitDy=0;entryX=0.063;entryY=1;entryDx=0;entryDy=0;entryPerimeter=0;" edge="1" parent="1" source="i-ALyavoHfY1uzqZBJJP-29" target="i-ALyavoHfY1uzqZBJJP-24">
          <mxGeometry relative="1" as="geometry" />
        </mxCell>
        <mxCell id="i-ALyavoHfY1uzqZBJJP-45" value="1" style="edgeLabel;html=1;align=center;verticalAlign=middle;resizable=0;points=[];" vertex="1" connectable="0" parent="i-ALyavoHfY1uzqZBJJP-37">
          <mxGeometry x="-0.667" relative="1" as="geometry">
            <mxPoint as="offset" />
          </mxGeometry>
        </mxCell>
        <mxCell id="i-ALyavoHfY1uzqZBJJP-46" value="1" style="edgeLabel;html=1;align=center;verticalAlign=middle;resizable=0;points=[];" vertex="1" connectable="0" parent="i-ALyavoHfY1uzqZBJJP-37">
          <mxGeometry x="0.6046" y="-2" relative="1" as="geometry">
            <mxPoint as="offset" />
          </mxGeometry>
        </mxCell>
        <mxCell id="i-ALyavoHfY1uzqZBJJP-38" style="edgeStyle=orthogonalEdgeStyle;rounded=0;orthogonalLoop=1;jettySize=auto;html=1;entryX=0.859;entryY=0.988;entryDx=0;entryDy=0;entryPerimeter=0;" edge="1" parent="1" source="i-ALyavoHfY1uzqZBJJP-33" target="i-ALyavoHfY1uzqZBJJP-24">
          <mxGeometry relative="1" as="geometry" />
        </mxCell>
        <mxCell id="i-ALyavoHfY1uzqZBJJP-43" value="1" style="edgeLabel;html=1;align=center;verticalAlign=middle;resizable=0;points=[];" vertex="1" connectable="0" parent="i-ALyavoHfY1uzqZBJJP-38">
          <mxGeometry x="0.6453" y="1" relative="1" as="geometry">
            <mxPoint as="offset" />
          </mxGeometry>
        </mxCell>
        <mxCell id="i-ALyavoHfY1uzqZBJJP-44" value="1" style="edgeLabel;html=1;align=center;verticalAlign=middle;resizable=0;points=[];" vertex="1" connectable="0" parent="i-ALyavoHfY1uzqZBJJP-38">
          <mxGeometry x="-0.6132" y="2" relative="1" as="geometry">
            <mxPoint as="offset" />
          </mxGeometry>
        </mxCell>
      </root>
    </mxGraphModel>
  </diagram>
</mxfile>
